<svg xmlns="http://www.w3.org/2000/svg" xmlns:xlink="http://www.w3.org/1999/xlink" width="600" zoomAndPan="magnify" viewBox="0 0 450 449.999984" height="600" preserveAspectRatio="xMidYMid meet" version="1.0"><defs><clipPath id="1eb1a98645"><path d="M 1 8.183594 L 449 8.183594 L 449 441.683594 L 1 441.683594 Z M 1 8.183594 " clip-rule="nonzero"/></clipPath></defs><path fill="#38b6ff" d="M 440.851562 208.503906 L 380.320312 410.160156 L 103.410156 433.945312 L 168.757812 225.441406 Z M 440.851562 208.503906 " fill-opacity="1" fill-rule="nonzero"/><path fill="#5e17eb" d="M 440.851562 208.503906 L 168.757812 225.441406 L 70.339844 34.800781 L 69.46875 33.097656 L 341.546875 16.132812 Z M 440.851562 208.503906 " fill-opacity="1" fill-rule="nonzero"/><path fill="#5ce1e6" d="M 168.757812 225.441406 L 103.410156 433.945312 L 9.058594 224.34375 L 68.746094 35.625 L 70.339844 34.796875 Z M 168.757812 225.441406 " fill-opacity="1" fill-rule="nonzero"/><g clip-path="url(#1eb1a98645)"><path fill="#000000" d="M 447.738281 204.953125 L 447.75 204.945312 L 348.445312 12.574219 C 347.035156 9.835938 344.136719 8.226562 341.0625 8.386719 L 68.988281 25.351562 C 66.378906 25.515625 64.023438 26.980469 62.726562 29.253906 C 62.179688 30.210938 61.867188 31.261719 61.761719 32.328125 C 61.613281 32.640625 61.453125 32.945312 61.347656 33.285156 L 1.65625 222.003906 C 1.082031 223.824219 1.195312 225.789062 1.980469 227.53125 L 96.332031 437.132812 C 96.335938 437.140625 96.339844 437.144531 96.34375 437.152344 C 96.488281 437.476562 96.660156 437.785156 96.847656 438.085938 C 96.917969 438.195312 96.996094 438.296875 97.070312 438.402344 C 97.164062 438.535156 97.253906 438.679688 97.355469 438.804688 C 97.375 438.832031 97.40625 438.851562 97.429688 438.878906 C 97.761719 439.285156 98.128906 439.644531 98.527344 439.96875 C 98.597656 440.027344 98.675781 440.078125 98.75 440.132812 C 99.125 440.414062 99.511719 440.660156 99.925781 440.863281 C 99.992188 440.898438 100.054688 440.9375 100.121094 440.96875 C 100.574219 441.183594 101.054688 441.34375 101.539062 441.464844 C 101.648438 441.492188 101.753906 441.511719 101.863281 441.535156 C 102.371094 441.640625 102.890625 441.710938 103.414062 441.710938 C 103.425781 441.710938 103.4375 441.707031 103.449219 441.707031 C 103.65625 441.707031 103.867188 441.699219 104.074219 441.679688 L 380.980469 417.894531 C 384.152344 417.621094 386.839844 415.4375 387.753906 412.390625 L 448.285156 210.734375 C 448.871094 208.792969 448.652344 206.722656 447.738281 204.953125 Z M 336.972656 24.195312 L 428.496094 201.5 L 173.332031 217.382812 L 81.816406 40.105469 Z M 71.25 53.464844 L 160.394531 226.164062 L 102.109375 412.140625 L 17.355469 223.859375 Z M 374.398438 402.878906 L 114.28125 425.222656 L 174.570312 232.855469 L 430.210938 216.945312 Z M 374.398438 402.878906 " fill-opacity="1" fill-rule="nonzero"/></g></svg>